<svg width="566" height="357" viewBox="0 0 566 357" fill="none" xmlns="http://www.w3.org/2000/svg">
<path d="M0.51837 2.41906C0.251579 1.17404 1.20069 0 2.47397 0H564C565.105 0 566 0.895431 566 2V325.438C566 326.356 565.375 327.156 564.485 327.379L471.272 350.682C449.289 356.178 426.465 357.473 404 354.5V354.5L370.198 350.026C370.066 350.009 369.937 349.978 369.811 349.935L303.227 327.078C303.078 327.027 302.918 327.007 302.76 327.022L277.522 329.316C244.24 332.342 210.954 323.556 183.5 304.5V304.5L127.084 259.998C111.36 247.594 99.529 230.934 93 212V212L88.1457 191.217C80.7936 159.741 67.0541 130.111 47.7791 104.164L42.5718 97.1544C22.4255 70.0344 8.33679 38.905 1.25803 5.87081L0.51837 2.41906Z" fill="#84B74E"/>
</svg>
